<svg width="12" height="17" viewBox="0 0 12 17" fill="none" xmlns="http://www.w3.org/2000/svg">
<path d="M2 3.5C2.55 3.5 3 3.05 3 2.5C3 1.95 2.55 1.5 2 1.5C1.45 1.5 1 1.95 1 2.5C1 3.05 1.45 3.5 2 3.5Z" stroke="#888888" stroke-width="2"/>
<path d="M2 9.5C2.55 9.5 3 9.05 3 8.5C3 7.95 2.55 7.5 2 7.5C1.45 7.5 1 7.95 1 8.5C1 9.05 1.45 9.5 2 9.5Z" stroke="#888888" stroke-width="2"/>
<path d="M2 15.5C2.55 15.5 3 15.05 3 14.5C3 13.95 2.55 13.5 2 13.5C1.45 13.5 1 13.95 1 14.5C1 15.05 1.45 15.5 2 15.5Z" stroke="#888888" stroke-width="2"/>
<path d="M10 3.5C10.55 3.5 11 3.05 11 2.5C11 1.95 10.55 1.5 10 1.5C9.45 1.5 9 1.95 9 2.5C9 3.05 9.45 3.5 10 3.5Z" stroke="#888888" stroke-width="2"/>
<path d="M10 9.5C10.55 9.5 11 9.05 11 8.5C11 7.95 10.55 7.5 10 7.5C9.45 7.5 9 7.95 9 8.5C9 9.05 9.45 9.5 10 9.5Z" stroke="#888888" stroke-width="2"/>
<path d="M10 15.5C10.55 15.5 11 15.05 11 14.5C11 13.95 10.55 13.5 10 13.5C9.45 13.5 9 13.95 9 14.5C9 15.05 9.45 15.5 10 15.5Z" stroke="#888888" stroke-width="2"/>
</svg>
